<mxfile host="app.diagrams.net" modified="2020-10-13T13:30:51.663Z" agent="5.0 (Windows NT 10.0; Win64; x64) AppleWebKit/537.36 (KHTML, like Gecko) Chrome/86.0.4240.75 Safari/537.36" etag="CuGSQwtU0tvckYKUSukj" version="13.7.9" type="github">
  <diagram id="XjgdOJ3qnBWraXuSyFFR" name="Page-1">
    <mxGraphModel dx="569" dy="2821" grid="1" gridSize="10" guides="1" tooltips="1" connect="1" arrows="1" fold="1" page="1" pageScale="1" pageWidth="827" pageHeight="1169" math="0" shadow="0">
      <root>
        <mxCell id="0" />
        <mxCell id="1" parent="0" />
        <mxCell id="YdMFW18HuKcV_9Qh_8Ng-23" value="STORE" style="swimlane;fontStyle=0;childLayout=stackLayout;horizontal=1;startSize=26;horizontalStack=0;resizeParent=1;resizeParentMax=0;resizeLast=0;collapsible=1;marginBottom=0;align=center;fontSize=14;" parent="1" vertex="1">
          <mxGeometry x="334" y="-922" width="160" height="456" as="geometry" />
        </mxCell>
        <mxCell id="YdMFW18HuKcV_9Qh_8Ng-24" value="store_id" style="text;strokeColor=none;fillColor=none;spacingLeft=4;spacingRight=4;overflow=hidden;rotatable=0;points=[[0,0.5],[1,0.5]];portConstraint=eastwest;fontSize=12;fontStyle=4" parent="YdMFW18HuKcV_9Qh_8Ng-23" vertex="1">
          <mxGeometry y="26" width="160" height="30" as="geometry" />
        </mxCell>
        <mxCell id="YdMFW18HuKcV_9Qh_8Ng-25" value="vendor_id" style="text;strokeColor=none;fillColor=none;spacingLeft=4;spacingRight=4;overflow=hidden;rotatable=0;points=[[0,0.5],[1,0.5]];portConstraint=eastwest;fontSize=12;fontStyle=0" parent="YdMFW18HuKcV_9Qh_8Ng-23" vertex="1">
          <mxGeometry y="56" width="160" height="30" as="geometry" />
        </mxCell>
        <mxCell id="YdMFW18HuKcV_9Qh_8Ng-26" value="name" style="text;strokeColor=none;fillColor=none;spacingLeft=4;spacingRight=4;overflow=hidden;rotatable=0;points=[[0,0.5],[1,0.5]];portConstraint=eastwest;fontSize=12;" parent="YdMFW18HuKcV_9Qh_8Ng-23" vertex="1">
          <mxGeometry y="86" width="160" height="30" as="geometry" />
        </mxCell>
        <mxCell id="YdMFW18HuKcV_9Qh_8Ng-27" value="description" style="text;strokeColor=none;fillColor=none;spacingLeft=4;spacingRight=4;overflow=hidden;rotatable=0;points=[[0,0.5],[1,0.5]];portConstraint=eastwest;fontSize=12;" parent="YdMFW18HuKcV_9Qh_8Ng-23" vertex="1">
          <mxGeometry y="116" width="160" height="34" as="geometry" />
        </mxCell>
        <mxCell id="YdMFW18HuKcV_9Qh_8Ng-29" value="banner" style="text;strokeColor=none;fillColor=none;spacingLeft=4;spacingRight=4;overflow=hidden;rotatable=0;points=[[0,0.5],[1,0.5]];portConstraint=eastwest;fontSize=12;" parent="YdMFW18HuKcV_9Qh_8Ng-23" vertex="1">
          <mxGeometry y="150" width="160" height="30" as="geometry" />
        </mxCell>
        <mxCell id="YdMFW18HuKcV_9Qh_8Ng-42" value="street_address" style="text;strokeColor=none;fillColor=none;spacingLeft=4;spacingRight=4;overflow=hidden;rotatable=0;points=[[0,0.5],[1,0.5]];portConstraint=eastwest;fontSize=12;" parent="YdMFW18HuKcV_9Qh_8Ng-23" vertex="1">
          <mxGeometry y="180" width="160" height="30" as="geometry" />
        </mxCell>
        <mxCell id="YdMFW18HuKcV_9Qh_8Ng-46" value="country" style="text;strokeColor=none;fillColor=none;spacingLeft=4;spacingRight=4;overflow=hidden;rotatable=0;points=[[0,0.5],[1,0.5]];portConstraint=eastwest;fontSize=12;" parent="YdMFW18HuKcV_9Qh_8Ng-23" vertex="1">
          <mxGeometry y="210" width="160" height="30" as="geometry" />
        </mxCell>
        <mxCell id="YdMFW18HuKcV_9Qh_8Ng-45" value="zipcode" style="text;strokeColor=none;fillColor=none;spacingLeft=4;spacingRight=4;overflow=hidden;rotatable=0;points=[[0,0.5],[1,0.5]];portConstraint=eastwest;fontSize=12;" parent="YdMFW18HuKcV_9Qh_8Ng-23" vertex="1">
          <mxGeometry y="240" width="160" height="30" as="geometry" />
        </mxCell>
        <mxCell id="YdMFW18HuKcV_9Qh_8Ng-44" value="state" style="text;strokeColor=none;fillColor=none;spacingLeft=4;spacingRight=4;overflow=hidden;rotatable=0;points=[[0,0.5],[1,0.5]];portConstraint=eastwest;fontSize=12;" parent="YdMFW18HuKcV_9Qh_8Ng-23" vertex="1">
          <mxGeometry y="270" width="160" height="30" as="geometry" />
        </mxCell>
        <mxCell id="YdMFW18HuKcV_9Qh_8Ng-43" value="city" style="text;strokeColor=none;fillColor=none;spacingLeft=4;spacingRight=4;overflow=hidden;rotatable=0;points=[[0,0.5],[1,0.5]];portConstraint=eastwest;fontSize=12;" parent="YdMFW18HuKcV_9Qh_8Ng-23" vertex="1">
          <mxGeometry y="300" width="160" height="30" as="geometry" />
        </mxCell>
        <mxCell id="YdMFW18HuKcV_9Qh_8Ng-91" value="store_opening_time" style="text;strokeColor=none;fillColor=none;spacingLeft=4;spacingRight=4;overflow=hidden;rotatable=0;points=[[0,0.5],[1,0.5]];portConstraint=eastwest;fontSize=12;" parent="YdMFW18HuKcV_9Qh_8Ng-23" vertex="1">
          <mxGeometry y="330" width="160" height="36" as="geometry" />
        </mxCell>
        <mxCell id="YdMFW18HuKcV_9Qh_8Ng-33" value="store_close_time" style="text;strokeColor=none;fillColor=none;spacingLeft=4;spacingRight=4;overflow=hidden;rotatable=0;points=[[0,0.5],[1,0.5]];portConstraint=eastwest;fontSize=12;" parent="YdMFW18HuKcV_9Qh_8Ng-23" vertex="1">
          <mxGeometry y="366" width="160" height="30" as="geometry" />
        </mxCell>
        <mxCell id="YdMFW18HuKcV_9Qh_8Ng-32" value="created" style="text;strokeColor=none;fillColor=none;spacingLeft=4;spacingRight=4;overflow=hidden;rotatable=0;points=[[0,0.5],[1,0.5]];portConstraint=eastwest;fontSize=12;" parent="YdMFW18HuKcV_9Qh_8Ng-23" vertex="1">
          <mxGeometry y="396" width="160" height="30" as="geometry" />
        </mxCell>
        <mxCell id="YdMFW18HuKcV_9Qh_8Ng-34" value="updated" style="text;strokeColor=none;fillColor=none;spacingLeft=4;spacingRight=4;overflow=hidden;rotatable=0;points=[[0,0.5],[1,0.5]];portConstraint=eastwest;fontSize=12;" parent="YdMFW18HuKcV_9Qh_8Ng-23" vertex="1">
          <mxGeometry y="426" width="160" height="30" as="geometry" />
        </mxCell>
        <mxCell id="YdMFW18HuKcV_9Qh_8Ng-35" value="" style="endArrow=none;html=1;rounded=0;entryX=0.012;entryY=0.211;entryDx=0;entryDy=0;entryPerimeter=0;exitX=1.002;exitY=0.226;exitDx=0;exitDy=0;exitPerimeter=0;" parent="1" source="YdMFW18HuKcV_9Qh_8Ng-11" target="YdMFW18HuKcV_9Qh_8Ng-25" edge="1">
          <mxGeometry relative="1" as="geometry">
            <mxPoint x="184" y="-858" as="sourcePoint" />
            <mxPoint x="334" y="-860" as="targetPoint" />
          </mxGeometry>
        </mxCell>
        <mxCell id="YdMFW18HuKcV_9Qh_8Ng-36" value="1" style="resizable=0;html=1;align=right;verticalAlign=bottom;" parent="YdMFW18HuKcV_9Qh_8Ng-35" connectable="0" vertex="1">
          <mxGeometry x="1" relative="1" as="geometry" />
        </mxCell>
        <mxCell id="YdMFW18HuKcV_9Qh_8Ng-3" value="SITE INFO" style="swimlane;fontStyle=0;childLayout=stackLayout;horizontal=1;startSize=26;horizontalStack=0;resizeParent=1;resizeParentMax=0;resizeLast=0;collapsible=1;marginBottom=0;align=center;fontSize=14;" parent="1" vertex="1">
          <mxGeometry x="340" y="-1300" width="160" height="266" as="geometry" />
        </mxCell>
        <mxCell id="YdMFW18HuKcV_9Qh_8Ng-4" value="site info id" style="text;strokeColor=none;fillColor=none;spacingLeft=4;spacingRight=4;overflow=hidden;rotatable=0;points=[[0,0.5],[1,0.5]];portConstraint=eastwest;fontSize=12;fontStyle=4" parent="YdMFW18HuKcV_9Qh_8Ng-3" vertex="1">
          <mxGeometry y="26" width="160" height="30" as="geometry" />
        </mxCell>
        <mxCell id="YdMFW18HuKcV_9Qh_8Ng-5" value="siteurl" style="text;strokeColor=none;fillColor=none;spacingLeft=4;spacingRight=4;overflow=hidden;rotatable=0;points=[[0,0.5],[1,0.5]];portConstraint=eastwest;fontSize=12;" parent="YdMFW18HuKcV_9Qh_8Ng-3" vertex="1">
          <mxGeometry y="56" width="160" height="30" as="geometry" />
        </mxCell>
        <mxCell id="YdMFW18HuKcV_9Qh_8Ng-6" value="addressid" style="text;strokeColor=none;fillColor=none;spacingLeft=4;spacingRight=4;overflow=hidden;rotatable=0;points=[[0,0.5],[1,0.5]];portConstraint=eastwest;fontSize=12;" parent="YdMFW18HuKcV_9Qh_8Ng-3" vertex="1">
          <mxGeometry y="86" width="160" height="30" as="geometry" />
        </mxCell>
        <mxCell id="YdMFW18HuKcV_9Qh_8Ng-7" value="phone" style="text;strokeColor=none;fillColor=none;spacingLeft=4;spacingRight=4;overflow=hidden;rotatable=0;points=[[0,0.5],[1,0.5]];portConstraint=eastwest;fontSize=12;" parent="YdMFW18HuKcV_9Qh_8Ng-3" vertex="1">
          <mxGeometry y="116" width="160" height="30" as="geometry" />
        </mxCell>
        <mxCell id="YdMFW18HuKcV_9Qh_8Ng-8" value="facebook_url" style="text;strokeColor=none;fillColor=none;spacingLeft=4;spacingRight=4;overflow=hidden;rotatable=0;points=[[0,0.5],[1,0.5]];portConstraint=eastwest;fontSize=12;" parent="YdMFW18HuKcV_9Qh_8Ng-3" vertex="1">
          <mxGeometry y="146" width="160" height="30" as="geometry" />
        </mxCell>
        <mxCell id="YdMFW18HuKcV_9Qh_8Ng-207" value="instagram_url" style="text;strokeColor=none;fillColor=none;spacingLeft=4;spacingRight=4;overflow=hidden;rotatable=0;points=[[0,0.5],[1,0.5]];portConstraint=eastwest;fontSize=12;" parent="YdMFW18HuKcV_9Qh_8Ng-3" vertex="1">
          <mxGeometry y="176" width="160" height="30" as="geometry" />
        </mxCell>
        <mxCell id="YdMFW18HuKcV_9Qh_8Ng-208" value="linkedin_url" style="text;strokeColor=none;fillColor=none;spacingLeft=4;spacingRight=4;overflow=hidden;rotatable=0;points=[[0,0.5],[1,0.5]];portConstraint=eastwest;fontSize=12;" parent="YdMFW18HuKcV_9Qh_8Ng-3" vertex="1">
          <mxGeometry y="206" width="160" height="30" as="geometry" />
        </mxCell>
        <mxCell id="YdMFW18HuKcV_9Qh_8Ng-9" value="contact_info" style="text;strokeColor=none;fillColor=none;spacingLeft=4;spacingRight=4;overflow=hidden;rotatable=0;points=[[0,0.5],[1,0.5]];portConstraint=eastwest;fontSize=12;" parent="YdMFW18HuKcV_9Qh_8Ng-3" vertex="1">
          <mxGeometry y="236" width="160" height="30" as="geometry" />
        </mxCell>
        <mxCell id="YdMFW18HuKcV_9Qh_8Ng-53" value="" style="fontSize=12;html=1;endArrow=ERzeroToMany;endFill=1;exitX=1.001;exitY=0.77;exitDx=0;exitDy=0;exitPerimeter=0;entryX=-0.003;entryY=0.933;entryDx=0;entryDy=0;entryPerimeter=0;rounded=0;" parent="1" source="YdMFW18HuKcV_9Qh_8Ng-24" target="YdMFW18HuKcV_9Qh_8Ng-48" edge="1">
          <mxGeometry width="100" height="100" relative="1" as="geometry">
            <mxPoint x="550" y="-881" as="sourcePoint" />
            <mxPoint x="610" y="-1000" as="targetPoint" />
            <Array as="points">
              <mxPoint x="520" y="-873" />
              <mxPoint x="520" y="-576" />
            </Array>
          </mxGeometry>
        </mxCell>
        <mxCell id="YdMFW18HuKcV_9Qh_8Ng-58" value="PAYMENT INFO" style="swimlane;fontStyle=0;childLayout=stackLayout;horizontal=1;startSize=26;horizontalStack=0;resizeParent=1;resizeParentMax=0;resizeLast=0;collapsible=1;marginBottom=0;align=center;fontSize=14;" parent="1" vertex="1">
          <mxGeometry x="20" y="-480" width="160" height="416" as="geometry" />
        </mxCell>
        <mxCell id="YdMFW18HuKcV_9Qh_8Ng-59" value="payment_id&#xa;" style="text;strokeColor=none;fillColor=none;spacingLeft=4;spacingRight=4;overflow=hidden;rotatable=0;points=[[0,0.5],[1,0.5]];portConstraint=eastwest;fontSize=12;fontStyle=4" parent="YdMFW18HuKcV_9Qh_8Ng-58" vertex="1">
          <mxGeometry y="26" width="160" height="30" as="geometry" />
        </mxCell>
        <mxCell id="YdMFW18HuKcV_9Qh_8Ng-143" value="vendor_id" style="text;strokeColor=none;fillColor=none;spacingLeft=4;spacingRight=4;overflow=hidden;rotatable=0;points=[[0,0.5],[1,0.5]];portConstraint=eastwest;fontSize=12;fontStyle=0" parent="YdMFW18HuKcV_9Qh_8Ng-58" vertex="1">
          <mxGeometry y="56" width="160" height="30" as="geometry" />
        </mxCell>
        <mxCell id="YdMFW18HuKcV_9Qh_8Ng-66" value="accountname" style="text;strokeColor=none;fillColor=none;spacingLeft=4;spacingRight=4;overflow=hidden;rotatable=0;points=[[0,0.5],[1,0.5]];portConstraint=eastwest;fontSize=12;" parent="YdMFW18HuKcV_9Qh_8Ng-58" vertex="1">
          <mxGeometry y="86" width="160" height="30" as="geometry" />
        </mxCell>
        <mxCell id="YdMFW18HuKcV_9Qh_8Ng-60" value="account_no" style="text;strokeColor=none;fillColor=none;spacingLeft=4;spacingRight=4;overflow=hidden;rotatable=0;points=[[0,0.5],[1,0.5]];portConstraint=eastwest;fontSize=12;" parent="YdMFW18HuKcV_9Qh_8Ng-58" vertex="1">
          <mxGeometry y="116" width="160" height="30" as="geometry" />
        </mxCell>
        <mxCell id="YdMFW18HuKcV_9Qh_8Ng-61" value="bank name" style="text;strokeColor=none;fillColor=none;spacingLeft=4;spacingRight=4;overflow=hidden;rotatable=0;points=[[0,0.5],[1,0.5]];portConstraint=eastwest;fontSize=12;" parent="YdMFW18HuKcV_9Qh_8Ng-58" vertex="1">
          <mxGeometry y="146" width="160" height="30" as="geometry" />
        </mxCell>
        <mxCell id="YdMFW18HuKcV_9Qh_8Ng-63" value="iban:boolean" style="text;strokeColor=none;fillColor=none;spacingLeft=4;spacingRight=4;overflow=hidden;rotatable=0;points=[[0,0.5],[1,0.5]];portConstraint=eastwest;fontSize=12;" parent="YdMFW18HuKcV_9Qh_8Ng-58" vertex="1">
          <mxGeometry y="176" width="160" height="30" as="geometry" />
        </mxCell>
        <mxCell id="YdMFW18HuKcV_9Qh_8Ng-67" value="bank_streetaddress" style="text;strokeColor=none;fillColor=none;spacingLeft=4;spacingRight=4;overflow=hidden;rotatable=0;points=[[0,0.5],[1,0.5]];portConstraint=eastwest;fontSize=12;" parent="YdMFW18HuKcV_9Qh_8Ng-58" vertex="1">
          <mxGeometry y="206" width="160" height="30" as="geometry" />
        </mxCell>
        <mxCell id="YdMFW18HuKcV_9Qh_8Ng-70" value="state" style="text;strokeColor=none;fillColor=none;spacingLeft=4;spacingRight=4;overflow=hidden;rotatable=0;points=[[0,0.5],[1,0.5]];portConstraint=eastwest;fontSize=12;" parent="YdMFW18HuKcV_9Qh_8Ng-58" vertex="1">
          <mxGeometry y="236" width="160" height="30" as="geometry" />
        </mxCell>
        <mxCell id="YdMFW18HuKcV_9Qh_8Ng-69" value="zipcode" style="text;strokeColor=none;fillColor=none;spacingLeft=4;spacingRight=4;overflow=hidden;rotatable=0;points=[[0,0.5],[1,0.5]];portConstraint=eastwest;fontSize=12;" parent="YdMFW18HuKcV_9Qh_8Ng-58" vertex="1">
          <mxGeometry y="266" width="160" height="30" as="geometry" />
        </mxCell>
        <mxCell id="YdMFW18HuKcV_9Qh_8Ng-68" value="country" style="text;strokeColor=none;fillColor=none;spacingLeft=4;spacingRight=4;overflow=hidden;rotatable=0;points=[[0,0.5],[1,0.5]];portConstraint=eastwest;fontSize=12;" parent="YdMFW18HuKcV_9Qh_8Ng-58" vertex="1">
          <mxGeometry y="296" width="160" height="30" as="geometry" />
        </mxCell>
        <mxCell id="YdMFW18HuKcV_9Qh_8Ng-64" value="created" style="text;strokeColor=none;fillColor=none;spacingLeft=4;spacingRight=4;overflow=hidden;rotatable=0;points=[[0,0.5],[1,0.5]];portConstraint=eastwest;fontSize=12;" parent="YdMFW18HuKcV_9Qh_8Ng-58" vertex="1">
          <mxGeometry y="326" width="160" height="30" as="geometry" />
        </mxCell>
        <mxCell id="YdMFW18HuKcV_9Qh_8Ng-65" value="updated" style="text;strokeColor=none;fillColor=none;spacingLeft=4;spacingRight=4;overflow=hidden;rotatable=0;points=[[0,0.5],[1,0.5]];portConstraint=eastwest;fontSize=12;" parent="YdMFW18HuKcV_9Qh_8Ng-58" vertex="1">
          <mxGeometry y="356" width="160" height="30" as="geometry" />
        </mxCell>
        <mxCell id="YdMFW18HuKcV_9Qh_8Ng-71" value="city" style="text;strokeColor=none;fillColor=none;spacingLeft=4;spacingRight=4;overflow=hidden;rotatable=0;points=[[0,0.5],[1,0.5]];portConstraint=eastwest;fontSize=12;" parent="YdMFW18HuKcV_9Qh_8Ng-58" vertex="1">
          <mxGeometry y="386" width="160" height="30" as="geometry" />
        </mxCell>
        <mxCell id="YdMFW18HuKcV_9Qh_8Ng-72" value="" style="fontSize=12;html=1;endArrow=ERone;endFill=1;exitX=1.002;exitY=0.896;exitDx=0;exitDy=0;entryX=1.002;entryY=0.119;entryDx=0;entryDy=0;strokeWidth=1;rounded=0;entryPerimeter=0;exitPerimeter=0;" parent="1" source="YdMFW18HuKcV_9Qh_8Ng-11" target="YdMFW18HuKcV_9Qh_8Ng-143" edge="1">
          <mxGeometry width="100" height="100" relative="1" as="geometry">
            <mxPoint x="250" y="-340" as="sourcePoint" />
            <mxPoint x="210" y="-440" as="targetPoint" />
            <Array as="points">
              <mxPoint x="210" y="-839" />
              <mxPoint x="210" y="-420" />
            </Array>
          </mxGeometry>
        </mxCell>
        <mxCell id="YdMFW18HuKcV_9Qh_8Ng-90" value="" style="fontSize=12;html=1;endArrow=ERzeroToMany;endFill=1;strokeWidth=1;entryX=0;entryY=0.5;entryDx=0;entryDy=0;exitX=-0.003;exitY=0.089;exitDx=0;exitDy=0;exitPerimeter=0;rounded=0;" parent="1" source="YdMFW18HuKcV_9Qh_8Ng-78" target="YdMFW18HuKcV_9Qh_8Ng-52" edge="1">
          <mxGeometry width="100" height="100" relative="1" as="geometry">
            <mxPoint x="560" y="-640" as="sourcePoint" />
            <mxPoint x="660" y="-760" as="targetPoint" />
            <Array as="points">
              <mxPoint x="580" y="-391" />
              <mxPoint x="580" y="-529" />
            </Array>
          </mxGeometry>
        </mxCell>
        <mxCell id="YdMFW18HuKcV_9Qh_8Ng-77" value="CUSTOMER" style="swimlane;fontStyle=0;childLayout=stackLayout;horizontal=1;startSize=26;horizontalStack=0;resizeParent=1;resizeParentMax=0;resizeLast=0;collapsible=1;marginBottom=0;align=center;fontSize=14;" parent="1" vertex="1">
          <mxGeometry x="620" y="-420" width="160" height="296" as="geometry" />
        </mxCell>
        <mxCell id="YdMFW18HuKcV_9Qh_8Ng-78" value="customer_id" style="text;strokeColor=none;fillColor=none;spacingLeft=4;spacingRight=4;overflow=hidden;rotatable=0;points=[[0,0.5],[1,0.5]];portConstraint=eastwest;fontSize=12;fontStyle=4" parent="YdMFW18HuKcV_9Qh_8Ng-77" vertex="1">
          <mxGeometry y="26" width="160" height="30" as="geometry" />
        </mxCell>
        <mxCell id="YdMFW18HuKcV_9Qh_8Ng-79" value="firstname" style="text;strokeColor=none;fillColor=none;spacingLeft=4;spacingRight=4;overflow=hidden;rotatable=0;points=[[0,0.5],[1,0.5]];portConstraint=eastwest;fontSize=12;" parent="YdMFW18HuKcV_9Qh_8Ng-77" vertex="1">
          <mxGeometry y="56" width="160" height="30" as="geometry" />
        </mxCell>
        <mxCell id="YdMFW18HuKcV_9Qh_8Ng-80" value="lastname" style="text;strokeColor=none;fillColor=none;spacingLeft=4;spacingRight=4;overflow=hidden;rotatable=0;points=[[0,0.5],[1,0.5]];portConstraint=eastwest;fontSize=12;" parent="YdMFW18HuKcV_9Qh_8Ng-77" vertex="1">
          <mxGeometry y="86" width="160" height="30" as="geometry" />
        </mxCell>
        <mxCell id="YdMFW18HuKcV_9Qh_8Ng-81" value="username" style="text;strokeColor=none;fillColor=none;spacingLeft=4;spacingRight=4;overflow=hidden;rotatable=0;points=[[0,0.5],[1,0.5]];portConstraint=eastwest;fontSize=12;" parent="YdMFW18HuKcV_9Qh_8Ng-77" vertex="1">
          <mxGeometry y="116" width="160" height="30" as="geometry" />
        </mxCell>
        <mxCell id="YdMFW18HuKcV_9Qh_8Ng-82" value="email" style="text;strokeColor=none;fillColor=none;spacingLeft=4;spacingRight=4;overflow=hidden;rotatable=0;points=[[0,0.5],[1,0.5]];portConstraint=eastwest;fontSize=12;" parent="YdMFW18HuKcV_9Qh_8Ng-77" vertex="1">
          <mxGeometry y="146" width="160" height="30" as="geometry" />
        </mxCell>
        <mxCell id="YdMFW18HuKcV_9Qh_8Ng-83" value="password" style="text;strokeColor=none;fillColor=none;spacingLeft=4;spacingRight=4;overflow=hidden;rotatable=0;points=[[0,0.5],[1,0.5]];portConstraint=eastwest;fontSize=12;" parent="YdMFW18HuKcV_9Qh_8Ng-77" vertex="1">
          <mxGeometry y="176" width="160" height="30" as="geometry" />
        </mxCell>
        <mxCell id="YdMFW18HuKcV_9Qh_8Ng-84" value="contact_number" style="text;strokeColor=none;fillColor=none;spacingLeft=4;spacingRight=4;overflow=hidden;rotatable=0;points=[[0,0.5],[1,0.5]];portConstraint=eastwest;fontSize=12;" parent="YdMFW18HuKcV_9Qh_8Ng-77" vertex="1">
          <mxGeometry y="206" width="160" height="30" as="geometry" />
        </mxCell>
        <mxCell id="YdMFW18HuKcV_9Qh_8Ng-88" value="created" style="text;strokeColor=none;fillColor=none;spacingLeft=4;spacingRight=4;overflow=hidden;rotatable=0;points=[[0,0.5],[1,0.5]];portConstraint=eastwest;fontSize=12;" parent="YdMFW18HuKcV_9Qh_8Ng-77" vertex="1">
          <mxGeometry y="236" width="160" height="30" as="geometry" />
        </mxCell>
        <mxCell id="YdMFW18HuKcV_9Qh_8Ng-89" value="updated" style="text;strokeColor=none;fillColor=none;spacingLeft=4;spacingRight=4;overflow=hidden;rotatable=0;points=[[0,0.5],[1,0.5]];portConstraint=eastwest;fontSize=12;" parent="YdMFW18HuKcV_9Qh_8Ng-77" vertex="1">
          <mxGeometry y="266" width="160" height="30" as="geometry" />
        </mxCell>
        <mxCell id="YdMFW18HuKcV_9Qh_8Ng-47" value="STORE_FOLLOWER" style="swimlane;fontStyle=0;childLayout=stackLayout;horizontal=1;startSize=26;horizontalStack=0;resizeParent=1;resizeParentMax=0;resizeLast=0;collapsible=1;marginBottom=0;align=center;fontSize=14;" parent="1" vertex="1">
          <mxGeometry x="620" y="-630" width="160" height="176" as="geometry" />
        </mxCell>
        <mxCell id="YdMFW18HuKcV_9Qh_8Ng-48" value="store_follower_id" style="text;strokeColor=none;fillColor=none;spacingLeft=4;spacingRight=4;overflow=hidden;rotatable=0;points=[[0,0.5],[1,0.5]];portConstraint=eastwest;fontSize=12;fontStyle=4" parent="YdMFW18HuKcV_9Qh_8Ng-47" vertex="1">
          <mxGeometry y="26" width="160" height="30" as="geometry" />
        </mxCell>
        <mxCell id="YdMFW18HuKcV_9Qh_8Ng-49" value="store_id" style="text;strokeColor=none;fillColor=none;spacingLeft=4;spacingRight=4;overflow=hidden;rotatable=0;points=[[0,0.5],[1,0.5]];portConstraint=eastwest;fontSize=12;" parent="YdMFW18HuKcV_9Qh_8Ng-47" vertex="1">
          <mxGeometry y="56" width="160" height="30" as="geometry" />
        </mxCell>
        <mxCell id="YdMFW18HuKcV_9Qh_8Ng-52" value="customer_id" style="text;strokeColor=none;fillColor=none;spacingLeft=4;spacingRight=4;overflow=hidden;rotatable=0;points=[[0,0.5],[1,0.5]];portConstraint=eastwest;fontSize=12;" parent="YdMFW18HuKcV_9Qh_8Ng-47" vertex="1">
          <mxGeometry y="86" width="160" height="30" as="geometry" />
        </mxCell>
        <mxCell id="YdMFW18HuKcV_9Qh_8Ng-50" value="created" style="text;strokeColor=none;fillColor=none;spacingLeft=4;spacingRight=4;overflow=hidden;rotatable=0;points=[[0,0.5],[1,0.5]];portConstraint=eastwest;fontSize=12;" parent="YdMFW18HuKcV_9Qh_8Ng-47" vertex="1">
          <mxGeometry y="116" width="160" height="30" as="geometry" />
        </mxCell>
        <mxCell id="YdMFW18HuKcV_9Qh_8Ng-51" value="updated" style="text;strokeColor=none;fillColor=none;spacingLeft=4;spacingRight=4;overflow=hidden;rotatable=0;points=[[0,0.5],[1,0.5]];portConstraint=eastwest;fontSize=12;" parent="YdMFW18HuKcV_9Qh_8Ng-47" vertex="1">
          <mxGeometry y="146" width="160" height="30" as="geometry" />
        </mxCell>
        <mxCell id="YdMFW18HuKcV_9Qh_8Ng-105" value="" style="fontSize=12;html=1;endArrow=ERzeroToMany;endFill=1;strokeWidth=1;rounded=0;exitX=1;exitY=0.5;exitDx=0;exitDy=0;entryX=-0.001;entryY=0.785;entryDx=0;entryDy=0;entryPerimeter=0;" parent="1" source="YdMFW18HuKcV_9Qh_8Ng-24" target="YdMFW18HuKcV_9Qh_8Ng-94" edge="1">
          <mxGeometry width="100" height="100" relative="1" as="geometry">
            <mxPoint x="630" y="-770" as="sourcePoint" />
            <mxPoint x="730" y="-870" as="targetPoint" />
            <Array as="points">
              <mxPoint x="900" y="-881" />
              <mxPoint x="900" y="-836" />
            </Array>
          </mxGeometry>
        </mxCell>
        <mxCell id="YdMFW18HuKcV_9Qh_8Ng-121" value="" style="fontSize=12;html=1;endArrow=ERzeroToMany;startArrow=ERmandOne;strokeColor=#000000;strokeWidth=1;rounded=0;exitX=1.011;exitY=0.267;exitDx=0;exitDy=0;exitPerimeter=0;" parent="1" source="YdMFW18HuKcV_9Qh_8Ng-104" target="YdMFW18HuKcV_9Qh_8Ng-114" edge="1">
          <mxGeometry width="100" height="100" relative="1" as="geometry">
            <mxPoint x="1020" y="-670" as="sourcePoint" />
            <mxPoint x="1120" y="-770" as="targetPoint" />
          </mxGeometry>
        </mxCell>
        <mxCell id="YdMFW18HuKcV_9Qh_8Ng-122" value="" style="fontSize=12;html=1;endArrow=ERzeroToMany;startArrow=ERmandOne;strokeColor=#000000;strokeWidth=1;rounded=0;exitX=1.01;exitY=0.244;exitDx=0;exitDy=0;exitPerimeter=0;entryX=0.008;entryY=0.804;entryDx=0;entryDy=0;entryPerimeter=0;" parent="1" source="YdMFW18HuKcV_9Qh_8Ng-93" target="YdMFW18HuKcV_9Qh_8Ng-108" edge="1">
          <mxGeometry width="100" height="100" relative="1" as="geometry">
            <mxPoint x="1020" y="-889" as="sourcePoint" />
            <mxPoint x="1110" y="-889.01" as="targetPoint" />
            <Array as="points" />
          </mxGeometry>
        </mxCell>
        <mxCell id="YdMFW18HuKcV_9Qh_8Ng-133" value="" style="fontSize=12;html=1;endArrow=ERzeroToMany;startArrow=ERmandOne;strokeColor=#000000;strokeWidth=1;rounded=0;entryX=0.999;entryY=0.007;entryDx=0;entryDy=0;entryPerimeter=0;exitX=-0.009;exitY=0.837;exitDx=0;exitDy=0;exitPerimeter=0;" parent="1" source="YdMFW18HuKcV_9Qh_8Ng-78" target="YdMFW18HuKcV_9Qh_8Ng-125" edge="1">
          <mxGeometry width="100" height="100" relative="1" as="geometry">
            <mxPoint x="510" y="-180" as="sourcePoint" />
            <mxPoint x="610" y="-280" as="targetPoint" />
          </mxGeometry>
        </mxCell>
        <mxCell id="YdMFW18HuKcV_9Qh_8Ng-123" value="ADDRESS" style="swimlane;fontStyle=0;childLayout=stackLayout;horizontal=1;startSize=26;horizontalStack=0;resizeParent=1;resizeParentMax=0;resizeLast=0;collapsible=1;marginBottom=0;align=center;fontSize=14;" parent="1" vertex="1">
          <mxGeometry x="320" y="-424" width="160" height="296" as="geometry" />
        </mxCell>
        <mxCell id="YdMFW18HuKcV_9Qh_8Ng-124" value="address_id" style="text;strokeColor=none;fillColor=none;spacingLeft=4;spacingRight=4;overflow=hidden;rotatable=0;points=[[0,0.5],[1,0.5]];portConstraint=eastwest;fontSize=12;fontStyle=4" parent="YdMFW18HuKcV_9Qh_8Ng-123" vertex="1">
          <mxGeometry y="26" width="160" height="30" as="geometry" />
        </mxCell>
        <mxCell id="YdMFW18HuKcV_9Qh_8Ng-125" value="customer_id" style="text;strokeColor=none;fillColor=none;spacingLeft=4;spacingRight=4;overflow=hidden;rotatable=0;points=[[0,0.5],[1,0.5]];portConstraint=eastwest;fontSize=12;" parent="YdMFW18HuKcV_9Qh_8Ng-123" vertex="1">
          <mxGeometry y="56" width="160" height="30" as="geometry" />
        </mxCell>
        <mxCell id="YdMFW18HuKcV_9Qh_8Ng-126" value="streetaddress" style="text;strokeColor=none;fillColor=none;spacingLeft=4;spacingRight=4;overflow=hidden;rotatable=0;points=[[0,0.5],[1,0.5]];portConstraint=eastwest;fontSize=12;" parent="YdMFW18HuKcV_9Qh_8Ng-123" vertex="1">
          <mxGeometry y="86" width="160" height="30" as="geometry" />
        </mxCell>
        <mxCell id="YdMFW18HuKcV_9Qh_8Ng-127" value="city" style="text;strokeColor=none;fillColor=none;spacingLeft=4;spacingRight=4;overflow=hidden;rotatable=0;points=[[0,0.5],[1,0.5]];portConstraint=eastwest;fontSize=12;" parent="YdMFW18HuKcV_9Qh_8Ng-123" vertex="1">
          <mxGeometry y="116" width="160" height="30" as="geometry" />
        </mxCell>
        <mxCell id="YdMFW18HuKcV_9Qh_8Ng-128" value="state" style="text;strokeColor=none;fillColor=none;spacingLeft=4;spacingRight=4;overflow=hidden;rotatable=0;points=[[0,0.5],[1,0.5]];portConstraint=eastwest;fontSize=12;" parent="YdMFW18HuKcV_9Qh_8Ng-123" vertex="1">
          <mxGeometry y="146" width="160" height="30" as="geometry" />
        </mxCell>
        <mxCell id="YdMFW18HuKcV_9Qh_8Ng-129" value="zipcode" style="text;strokeColor=none;fillColor=none;spacingLeft=4;spacingRight=4;overflow=hidden;rotatable=0;points=[[0,0.5],[1,0.5]];portConstraint=eastwest;fontSize=12;" parent="YdMFW18HuKcV_9Qh_8Ng-123" vertex="1">
          <mxGeometry y="176" width="160" height="30" as="geometry" />
        </mxCell>
        <mxCell id="YdMFW18HuKcV_9Qh_8Ng-130" value="country" style="text;strokeColor=none;fillColor=none;spacingLeft=4;spacingRight=4;overflow=hidden;rotatable=0;points=[[0,0.5],[1,0.5]];portConstraint=eastwest;fontSize=12;" parent="YdMFW18HuKcV_9Qh_8Ng-123" vertex="1">
          <mxGeometry y="206" width="160" height="30" as="geometry" />
        </mxCell>
        <mxCell id="YdMFW18HuKcV_9Qh_8Ng-131" value="created" style="text;strokeColor=none;fillColor=none;spacingLeft=4;spacingRight=4;overflow=hidden;rotatable=0;points=[[0,0.5],[1,0.5]];portConstraint=eastwest;fontSize=12;" parent="YdMFW18HuKcV_9Qh_8Ng-123" vertex="1">
          <mxGeometry y="236" width="160" height="30" as="geometry" />
        </mxCell>
        <mxCell id="YdMFW18HuKcV_9Qh_8Ng-132" value="updated" style="text;strokeColor=none;fillColor=none;spacingLeft=4;spacingRight=4;overflow=hidden;rotatable=0;points=[[0,0.5],[1,0.5]];portConstraint=eastwest;fontSize=12;" parent="YdMFW18HuKcV_9Qh_8Ng-123" vertex="1">
          <mxGeometry y="266" width="160" height="30" as="geometry" />
        </mxCell>
        <mxCell id="YdMFW18HuKcV_9Qh_8Ng-92" value="PRODUCT" style="swimlane;fontStyle=0;childLayout=stackLayout;horizontal=1;startSize=26;horizontalStack=0;resizeParent=1;resizeParentMax=0;resizeLast=0;collapsible=1;marginBottom=0;align=center;fontSize=14;" parent="1" vertex="1">
          <mxGeometry x="921" y="-916" width="160" height="390" as="geometry" />
        </mxCell>
        <mxCell id="YdMFW18HuKcV_9Qh_8Ng-93" value="product_id" style="text;strokeColor=none;fillColor=none;spacingLeft=4;spacingRight=4;overflow=hidden;rotatable=0;points=[[0,0.5],[1,0.5]];portConstraint=eastwest;fontSize=12;fontStyle=4" parent="YdMFW18HuKcV_9Qh_8Ng-92" vertex="1">
          <mxGeometry y="26" width="160" height="30" as="geometry" />
        </mxCell>
        <mxCell id="YdMFW18HuKcV_9Qh_8Ng-94" value="store_id" style="text;strokeColor=none;fillColor=none;spacingLeft=4;spacingRight=4;overflow=hidden;rotatable=0;points=[[0,0.5],[1,0.5]];portConstraint=eastwest;fontSize=12;" parent="YdMFW18HuKcV_9Qh_8Ng-92" vertex="1">
          <mxGeometry y="56" width="160" height="30" as="geometry" />
        </mxCell>
        <mxCell id="YdMFW18HuKcV_9Qh_8Ng-95" value="price" style="text;strokeColor=none;fillColor=none;spacingLeft=4;spacingRight=4;overflow=hidden;rotatable=0;points=[[0,0.5],[1,0.5]];portConstraint=eastwest;fontSize=12;" parent="YdMFW18HuKcV_9Qh_8Ng-92" vertex="1">
          <mxGeometry y="86" width="160" height="30" as="geometry" />
        </mxCell>
        <mxCell id="YdMFW18HuKcV_9Qh_8Ng-96" value="description" style="text;strokeColor=none;fillColor=none;spacingLeft=4;spacingRight=4;overflow=hidden;rotatable=0;points=[[0,0.5],[1,0.5]];portConstraint=eastwest;fontSize=12;" parent="YdMFW18HuKcV_9Qh_8Ng-92" vertex="1">
          <mxGeometry y="116" width="160" height="30" as="geometry" />
        </mxCell>
        <mxCell id="YdMFW18HuKcV_9Qh_8Ng-104" value="productcategory_id" style="text;strokeColor=none;fillColor=none;spacingLeft=4;spacingRight=4;overflow=hidden;rotatable=0;points=[[0,0.5],[1,0.5]];portConstraint=eastwest;fontSize=12;" parent="YdMFW18HuKcV_9Qh_8Ng-92" vertex="1">
          <mxGeometry y="146" width="160" height="30" as="geometry" />
        </mxCell>
        <mxCell id="YdMFW18HuKcV_9Qh_8Ng-100" value="sale_id" style="text;strokeColor=none;fillColor=none;spacingLeft=4;spacingRight=4;overflow=hidden;rotatable=0;points=[[0,0.5],[1,0.5]];portConstraint=eastwest;fontSize=12;" parent="YdMFW18HuKcV_9Qh_8Ng-92" vertex="1">
          <mxGeometry y="176" width="160" height="30" as="geometry" />
        </mxCell>
        <mxCell id="YdMFW18HuKcV_9Qh_8Ng-98" value="shippingdimensions" style="text;strokeColor=none;fillColor=none;spacingLeft=4;spacingRight=4;overflow=hidden;rotatable=0;points=[[0,0.5],[1,0.5]];portConstraint=eastwest;fontSize=12;" parent="YdMFW18HuKcV_9Qh_8Ng-92" vertex="1">
          <mxGeometry y="206" width="160" height="30" as="geometry" />
        </mxCell>
        <mxCell id="DZHXxEHf12C7qCPbh6NI-22" value="featured:boolean" style="text;strokeColor=none;fillColor=none;spacingLeft=4;spacingRight=4;overflow=hidden;rotatable=0;points=[[0,0.5],[1,0.5]];portConstraint=eastwest;fontSize=12;" vertex="1" parent="YdMFW18HuKcV_9Qh_8Ng-92">
          <mxGeometry y="236" width="160" height="30" as="geometry" />
        </mxCell>
        <mxCell id="YdMFW18HuKcV_9Qh_8Ng-99" value="stock_count" style="text;strokeColor=none;fillColor=none;spacingLeft=4;spacingRight=4;overflow=hidden;rotatable=0;points=[[0,0.5],[1,0.5]];portConstraint=eastwest;fontSize=12;" parent="YdMFW18HuKcV_9Qh_8Ng-92" vertex="1">
          <mxGeometry y="266" width="160" height="30" as="geometry" />
        </mxCell>
        <mxCell id="YdMFW18HuKcV_9Qh_8Ng-101" value="video" style="text;strokeColor=none;fillColor=none;spacingLeft=4;spacingRight=4;overflow=hidden;rotatable=0;points=[[0,0.5],[1,0.5]];portConstraint=eastwest;fontSize=12;" parent="YdMFW18HuKcV_9Qh_8Ng-92" vertex="1">
          <mxGeometry y="296" width="160" height="34" as="geometry" />
        </mxCell>
        <mxCell id="YdMFW18HuKcV_9Qh_8Ng-102" value="created" style="text;strokeColor=none;fillColor=none;spacingLeft=4;spacingRight=4;overflow=hidden;rotatable=0;points=[[0,0.5],[1,0.5]];portConstraint=eastwest;fontSize=12;" parent="YdMFW18HuKcV_9Qh_8Ng-92" vertex="1">
          <mxGeometry y="330" width="160" height="30" as="geometry" />
        </mxCell>
        <mxCell id="YdMFW18HuKcV_9Qh_8Ng-103" value="updated" style="text;strokeColor=none;fillColor=none;spacingLeft=4;spacingRight=4;overflow=hidden;rotatable=0;points=[[0,0.5],[1,0.5]];portConstraint=eastwest;fontSize=12;" parent="YdMFW18HuKcV_9Qh_8Ng-92" vertex="1">
          <mxGeometry y="360" width="160" height="30" as="geometry" />
        </mxCell>
        <mxCell id="YdMFW18HuKcV_9Qh_8Ng-134" value="ORDER" style="swimlane;fontStyle=0;childLayout=stackLayout;horizontal=1;startSize=26;horizontalStack=0;resizeParent=1;resizeParentMax=0;resizeLast=0;collapsible=1;marginBottom=0;align=center;fontSize=14;" parent="1" vertex="1">
          <mxGeometry x="620" y="-94" width="160" height="206" as="geometry" />
        </mxCell>
        <mxCell id="YdMFW18HuKcV_9Qh_8Ng-135" value="order_id" style="text;strokeColor=none;fillColor=none;spacingLeft=4;spacingRight=4;overflow=hidden;rotatable=0;points=[[0,0.5],[1,0.5]];portConstraint=eastwest;fontSize=12;fontStyle=4" parent="YdMFW18HuKcV_9Qh_8Ng-134" vertex="1">
          <mxGeometry y="26" width="160" height="30" as="geometry" />
        </mxCell>
        <mxCell id="YdMFW18HuKcV_9Qh_8Ng-136" value="customer_id" style="text;strokeColor=none;fillColor=none;spacingLeft=4;spacingRight=4;overflow=hidden;rotatable=0;points=[[0,0.5],[1,0.5]];portConstraint=eastwest;fontSize=12;" parent="YdMFW18HuKcV_9Qh_8Ng-134" vertex="1">
          <mxGeometry y="56" width="160" height="30" as="geometry" />
        </mxCell>
        <mxCell id="YdMFW18HuKcV_9Qh_8Ng-137" value="address_id" style="text;strokeColor=none;fillColor=none;spacingLeft=4;spacingRight=4;overflow=hidden;rotatable=0;points=[[0,0.5],[1,0.5]];portConstraint=eastwest;fontSize=12;" parent="YdMFW18HuKcV_9Qh_8Ng-134" vertex="1">
          <mxGeometry y="86" width="160" height="30" as="geometry" />
        </mxCell>
        <mxCell id="YdMFW18HuKcV_9Qh_8Ng-138" value="payment_id" style="text;strokeColor=none;fillColor=none;spacingLeft=4;spacingRight=4;overflow=hidden;rotatable=0;points=[[0,0.5],[1,0.5]];portConstraint=eastwest;fontSize=12;" parent="YdMFW18HuKcV_9Qh_8Ng-134" vertex="1">
          <mxGeometry y="116" width="160" height="30" as="geometry" />
        </mxCell>
        <mxCell id="YdMFW18HuKcV_9Qh_8Ng-139" value="created" style="text;strokeColor=none;fillColor=none;spacingLeft=4;spacingRight=4;overflow=hidden;rotatable=0;points=[[0,0.5],[1,0.5]];portConstraint=eastwest;fontSize=12;" parent="YdMFW18HuKcV_9Qh_8Ng-134" vertex="1">
          <mxGeometry y="146" width="160" height="30" as="geometry" />
        </mxCell>
        <mxCell id="YdMFW18HuKcV_9Qh_8Ng-140" value="updated" style="text;strokeColor=none;fillColor=none;spacingLeft=4;spacingRight=4;overflow=hidden;rotatable=0;points=[[0,0.5],[1,0.5]];portConstraint=eastwest;fontSize=12;" parent="YdMFW18HuKcV_9Qh_8Ng-134" vertex="1">
          <mxGeometry y="176" width="160" height="30" as="geometry" />
        </mxCell>
        <mxCell id="YdMFW18HuKcV_9Qh_8Ng-141" value="" style="fontSize=12;html=1;endArrow=ERmandOne;strokeColor=#000000;strokeWidth=1;entryX=-0.015;entryY=0.296;entryDx=0;entryDy=0;entryPerimeter=0;exitX=1.016;exitY=0.23;exitDx=0;exitDy=0;exitPerimeter=0;rounded=0;" parent="1" source="YdMFW18HuKcV_9Qh_8Ng-124" target="YdMFW18HuKcV_9Qh_8Ng-137" edge="1">
          <mxGeometry width="100" height="100" relative="1" as="geometry">
            <mxPoint x="420" y="50" as="sourcePoint" />
            <mxPoint x="520" y="-50" as="targetPoint" />
            <Array as="points">
              <mxPoint x="530" y="-391" />
              <mxPoint x="530" y="1" />
            </Array>
          </mxGeometry>
        </mxCell>
        <mxCell id="YdMFW18HuKcV_9Qh_8Ng-142" value="" style="fontSize=12;html=1;endArrow=ERmandOne;strokeColor=#000000;strokeWidth=1;exitX=1.002;exitY=1.044;exitDx=0;exitDy=0;exitPerimeter=0;rounded=0;entryX=1.002;entryY=0.23;entryDx=0;entryDy=0;entryPerimeter=0;" parent="1" source="YdMFW18HuKcV_9Qh_8Ng-78" target="YdMFW18HuKcV_9Qh_8Ng-136" edge="1">
          <mxGeometry width="100" height="100" relative="1" as="geometry">
            <mxPoint x="880" y="-190" as="sourcePoint" />
            <mxPoint x="840" y="-40" as="targetPoint" />
            <Array as="points">
              <mxPoint x="810" y="-363" />
              <mxPoint x="810" y="-31" />
            </Array>
          </mxGeometry>
        </mxCell>
        <mxCell id="YdMFW18HuKcV_9Qh_8Ng-10" value="VENDOR" style="swimlane;fontStyle=0;childLayout=stackLayout;horizontal=1;startSize=26;horizontalStack=0;resizeParent=1;resizeParentMax=0;resizeLast=0;collapsible=1;marginBottom=0;align=center;fontSize=14;" parent="1" vertex="1">
          <mxGeometry x="20" y="-892" width="160" height="326" as="geometry" />
        </mxCell>
        <mxCell id="YdMFW18HuKcV_9Qh_8Ng-11" value="vendor_id" style="text;strokeColor=none;fillColor=none;spacingLeft=4;spacingRight=4;overflow=hidden;rotatable=0;points=[[0,0.5],[1,0.5]];portConstraint=eastwest;fontSize=12;fontStyle=4" parent="YdMFW18HuKcV_9Qh_8Ng-10" vertex="1">
          <mxGeometry y="26" width="160" height="30" as="geometry" />
        </mxCell>
        <mxCell id="YdMFW18HuKcV_9Qh_8Ng-12" value="firstname" style="text;strokeColor=none;fillColor=none;spacingLeft=4;spacingRight=4;overflow=hidden;rotatable=0;points=[[0,0.5],[1,0.5]];portConstraint=eastwest;fontSize=12;" parent="YdMFW18HuKcV_9Qh_8Ng-10" vertex="1">
          <mxGeometry y="56" width="160" height="30" as="geometry" />
        </mxCell>
        <mxCell id="YdMFW18HuKcV_9Qh_8Ng-13" value="lastname" style="text;strokeColor=none;fillColor=none;spacingLeft=4;spacingRight=4;overflow=hidden;rotatable=0;points=[[0,0.5],[1,0.5]];portConstraint=eastwest;fontSize=12;" parent="YdMFW18HuKcV_9Qh_8Ng-10" vertex="1">
          <mxGeometry y="86" width="160" height="30" as="geometry" />
        </mxCell>
        <mxCell id="YdMFW18HuKcV_9Qh_8Ng-14" value="email" style="text;strokeColor=none;fillColor=none;spacingLeft=4;spacingRight=4;overflow=hidden;rotatable=0;points=[[0,0.5],[1,0.5]];portConstraint=eastwest;fontSize=12;" parent="YdMFW18HuKcV_9Qh_8Ng-10" vertex="1">
          <mxGeometry y="116" width="160" height="30" as="geometry" />
        </mxCell>
        <mxCell id="YdMFW18HuKcV_9Qh_8Ng-15" value="password" style="text;strokeColor=none;fillColor=none;spacingLeft=4;spacingRight=4;overflow=hidden;rotatable=0;points=[[0,0.5],[1,0.5]];portConstraint=eastwest;fontSize=12;" parent="YdMFW18HuKcV_9Qh_8Ng-10" vertex="1">
          <mxGeometry y="146" width="160" height="30" as="geometry" />
        </mxCell>
        <mxCell id="YdMFW18HuKcV_9Qh_8Ng-16" value="contact_number" style="text;strokeColor=none;fillColor=none;spacingLeft=4;spacingRight=4;overflow=hidden;rotatable=0;points=[[0,0.5],[1,0.5]];portConstraint=eastwest;fontSize=12;" parent="YdMFW18HuKcV_9Qh_8Ng-10" vertex="1">
          <mxGeometry y="176" width="160" height="30" as="geometry" />
        </mxCell>
        <mxCell id="YdMFW18HuKcV_9Qh_8Ng-17" value="featured:boolean" style="text;strokeColor=none;fillColor=none;spacingLeft=4;spacingRight=4;overflow=hidden;rotatable=0;points=[[0,0.5],[1,0.5]];portConstraint=eastwest;fontSize=12;" parent="YdMFW18HuKcV_9Qh_8Ng-10" vertex="1">
          <mxGeometry y="206" width="160" height="30" as="geometry" />
        </mxCell>
        <mxCell id="YdMFW18HuKcV_9Qh_8Ng-18" value="created" style="text;strokeColor=none;fillColor=none;spacingLeft=4;spacingRight=4;overflow=hidden;rotatable=0;points=[[0,0.5],[1,0.5]];portConstraint=eastwest;fontSize=12;" parent="YdMFW18HuKcV_9Qh_8Ng-10" vertex="1">
          <mxGeometry y="236" width="160" height="30" as="geometry" />
        </mxCell>
        <mxCell id="YdMFW18HuKcV_9Qh_8Ng-19" value="updated" style="text;strokeColor=none;fillColor=none;spacingLeft=4;spacingRight=4;overflow=hidden;rotatable=0;points=[[0,0.5],[1,0.5]];portConstraint=eastwest;fontSize=12;" parent="YdMFW18HuKcV_9Qh_8Ng-10" vertex="1">
          <mxGeometry y="266" width="160" height="30" as="geometry" />
        </mxCell>
        <mxCell id="YdMFW18HuKcV_9Qh_8Ng-20" value="approved" style="text;strokeColor=none;fillColor=none;spacingLeft=4;spacingRight=4;overflow=hidden;rotatable=0;points=[[0,0.5],[1,0.5]];portConstraint=eastwest;fontSize=12;" parent="YdMFW18HuKcV_9Qh_8Ng-10" vertex="1">
          <mxGeometry y="296" width="160" height="30" as="geometry" />
        </mxCell>
        <mxCell id="YdMFW18HuKcV_9Qh_8Ng-152" value="" style="fontSize=12;html=1;endArrow=ERmandOne;startArrow=ERmandOne;strokeColor=#000000;strokeWidth=1;rounded=0;exitX=1.019;exitY=0.874;exitDx=0;exitDy=0;exitPerimeter=0;entryX=0.01;entryY=0.785;entryDx=0;entryDy=0;entryPerimeter=0;" parent="1" source="YdMFW18HuKcV_9Qh_8Ng-135" target="YdMFW18HuKcV_9Qh_8Ng-146" edge="1">
          <mxGeometry width="100" height="100" relative="1" as="geometry">
            <mxPoint x="960" y="-90" as="sourcePoint" />
            <mxPoint x="1060" y="-190" as="targetPoint" />
          </mxGeometry>
        </mxCell>
        <mxCell id="YdMFW18HuKcV_9Qh_8Ng-144" value="ORDER DETAIL" style="swimlane;fontStyle=0;childLayout=stackLayout;horizontal=1;startSize=26;horizontalStack=0;resizeParent=1;resizeParentMax=0;resizeLast=0;collapsible=1;marginBottom=0;align=center;fontSize=14;" parent="1" vertex="1">
          <mxGeometry x="880" y="-152" width="160" height="206" as="geometry" />
        </mxCell>
        <mxCell id="YdMFW18HuKcV_9Qh_8Ng-145" value="orderdetail_id" style="text;strokeColor=none;fillColor=none;spacingLeft=4;spacingRight=4;overflow=hidden;rotatable=0;points=[[0,0.5],[1,0.5]];portConstraint=eastwest;fontSize=12;fontStyle=4" parent="YdMFW18HuKcV_9Qh_8Ng-144" vertex="1">
          <mxGeometry y="26" width="160" height="30" as="geometry" />
        </mxCell>
        <mxCell id="YdMFW18HuKcV_9Qh_8Ng-147" value="product_id" style="text;strokeColor=none;fillColor=none;spacingLeft=4;spacingRight=4;overflow=hidden;rotatable=0;points=[[0,0.5],[1,0.5]];portConstraint=eastwest;fontSize=12;" parent="YdMFW18HuKcV_9Qh_8Ng-144" vertex="1">
          <mxGeometry y="56" width="160" height="30" as="geometry" />
        </mxCell>
        <mxCell id="YdMFW18HuKcV_9Qh_8Ng-146" value="order_id" style="text;strokeColor=none;fillColor=none;spacingLeft=4;spacingRight=4;overflow=hidden;rotatable=0;points=[[0,0.5],[1,0.5]];portConstraint=eastwest;fontSize=12;" parent="YdMFW18HuKcV_9Qh_8Ng-144" vertex="1">
          <mxGeometry y="86" width="160" height="30" as="geometry" />
        </mxCell>
        <mxCell id="YdMFW18HuKcV_9Qh_8Ng-148" value="quantity" style="text;strokeColor=none;fillColor=none;spacingLeft=4;spacingRight=4;overflow=hidden;rotatable=0;points=[[0,0.5],[1,0.5]];portConstraint=eastwest;fontSize=12;" parent="YdMFW18HuKcV_9Qh_8Ng-144" vertex="1">
          <mxGeometry y="116" width="160" height="30" as="geometry" />
        </mxCell>
        <mxCell id="YdMFW18HuKcV_9Qh_8Ng-149" value="created" style="text;strokeColor=none;fillColor=none;spacingLeft=4;spacingRight=4;overflow=hidden;rotatable=0;points=[[0,0.5],[1,0.5]];portConstraint=eastwest;fontSize=12;" parent="YdMFW18HuKcV_9Qh_8Ng-144" vertex="1">
          <mxGeometry y="146" width="160" height="30" as="geometry" />
        </mxCell>
        <mxCell id="YdMFW18HuKcV_9Qh_8Ng-150" value="updated" style="text;strokeColor=none;fillColor=none;spacingLeft=4;spacingRight=4;overflow=hidden;rotatable=0;points=[[0,0.5],[1,0.5]];portConstraint=eastwest;fontSize=12;" parent="YdMFW18HuKcV_9Qh_8Ng-144" vertex="1">
          <mxGeometry y="176" width="160" height="30" as="geometry" />
        </mxCell>
        <mxCell id="YdMFW18HuKcV_9Qh_8Ng-153" value="" style="fontSize=12;html=1;endArrow=ERoneToMany;strokeColor=#000000;strokeWidth=1;entryX=0;entryY=0.5;entryDx=0;entryDy=0;rounded=0;exitX=-0.007;exitY=0;exitDx=0;exitDy=0;exitPerimeter=0;" parent="1" source="YdMFW18HuKcV_9Qh_8Ng-93" edge="1">
          <mxGeometry width="100" height="100" relative="1" as="geometry">
            <mxPoint x="919.8800000000001" y="-862.1199999999999" as="sourcePoint" />
            <mxPoint x="880" y="-80" as="targetPoint" />
            <Array as="points">
              <mxPoint x="850" y="-890" />
              <mxPoint x="850" y="-80" />
            </Array>
          </mxGeometry>
        </mxCell>
        <mxCell id="YdMFW18HuKcV_9Qh_8Ng-106" value="IMAGE" style="swimlane;fontStyle=0;childLayout=stackLayout;horizontal=1;startSize=26;horizontalStack=0;resizeParent=1;resizeParentMax=0;resizeLast=0;collapsible=1;marginBottom=0;align=center;fontSize=14;" parent="1" vertex="1">
          <mxGeometry x="1360" y="-963" width="160" height="176" as="geometry" />
        </mxCell>
        <mxCell id="YdMFW18HuKcV_9Qh_8Ng-107" value="image_id" style="text;strokeColor=none;fillColor=none;spacingLeft=4;spacingRight=4;overflow=hidden;rotatable=0;points=[[0,0.5],[1,0.5]];portConstraint=eastwest;fontSize=12;fontStyle=4" parent="YdMFW18HuKcV_9Qh_8Ng-106" vertex="1">
          <mxGeometry y="26" width="160" height="30" as="geometry" />
        </mxCell>
        <mxCell id="YdMFW18HuKcV_9Qh_8Ng-108" value="product_id" style="text;strokeColor=none;fillColor=none;spacingLeft=4;spacingRight=4;overflow=hidden;rotatable=0;points=[[0,0.5],[1,0.5]];portConstraint=eastwest;fontSize=12;" parent="YdMFW18HuKcV_9Qh_8Ng-106" vertex="1">
          <mxGeometry y="56" width="160" height="30" as="geometry" />
        </mxCell>
        <mxCell id="YdMFW18HuKcV_9Qh_8Ng-109" value="resolution" style="text;strokeColor=none;fillColor=none;spacingLeft=4;spacingRight=4;overflow=hidden;rotatable=0;points=[[0,0.5],[1,0.5]];portConstraint=eastwest;fontSize=12;" parent="YdMFW18HuKcV_9Qh_8Ng-106" vertex="1">
          <mxGeometry y="86" width="160" height="30" as="geometry" />
        </mxCell>
        <mxCell id="YdMFW18HuKcV_9Qh_8Ng-110" value="created" style="text;strokeColor=none;fillColor=none;spacingLeft=4;spacingRight=4;overflow=hidden;rotatable=0;points=[[0,0.5],[1,0.5]];portConstraint=eastwest;fontSize=12;" parent="YdMFW18HuKcV_9Qh_8Ng-106" vertex="1">
          <mxGeometry y="116" width="160" height="30" as="geometry" />
        </mxCell>
        <mxCell id="YdMFW18HuKcV_9Qh_8Ng-111" value="updated" style="text;strokeColor=none;fillColor=none;spacingLeft=4;spacingRight=4;overflow=hidden;rotatable=0;points=[[0,0.5],[1,0.5]];portConstraint=eastwest;fontSize=12;" parent="YdMFW18HuKcV_9Qh_8Ng-106" vertex="1">
          <mxGeometry y="146" width="160" height="30" as="geometry" />
        </mxCell>
        <mxCell id="YdMFW18HuKcV_9Qh_8Ng-113" value="PRODUCT CATEGORY" style="swimlane;fontStyle=0;childLayout=stackLayout;horizontal=1;startSize=26;horizontalStack=0;resizeParent=1;resizeParentMax=0;resizeLast=0;collapsible=1;marginBottom=0;align=center;fontSize=14;" parent="1" vertex="1">
          <mxGeometry x="1532" y="-800" width="160" height="236" as="geometry" />
        </mxCell>
        <mxCell id="YdMFW18HuKcV_9Qh_8Ng-114" value="productcategory_id" style="text;strokeColor=none;fillColor=none;spacingLeft=4;spacingRight=4;overflow=hidden;rotatable=0;points=[[0,0.5],[1,0.5]];portConstraint=eastwest;fontSize=12;fontStyle=4" parent="YdMFW18HuKcV_9Qh_8Ng-113" vertex="1">
          <mxGeometry y="26" width="160" height="30" as="geometry" />
        </mxCell>
        <mxCell id="YdMFW18HuKcV_9Qh_8Ng-115" value="product_id" style="text;strokeColor=none;fillColor=none;spacingLeft=4;spacingRight=4;overflow=hidden;rotatable=0;points=[[0,0.5],[1,0.5]];portConstraint=eastwest;fontSize=12;fontStyle=0" parent="YdMFW18HuKcV_9Qh_8Ng-113" vertex="1">
          <mxGeometry y="56" width="160" height="30" as="geometry" />
        </mxCell>
        <mxCell id="YdMFW18HuKcV_9Qh_8Ng-116" value="title" style="text;strokeColor=none;fillColor=none;spacingLeft=4;spacingRight=4;overflow=hidden;rotatable=0;points=[[0,0.5],[1,0.5]];portConstraint=eastwest;fontSize=12;" parent="YdMFW18HuKcV_9Qh_8Ng-113" vertex="1">
          <mxGeometry y="86" width="160" height="30" as="geometry" />
        </mxCell>
        <mxCell id="YdMFW18HuKcV_9Qh_8Ng-117" value="description" style="text;strokeColor=none;fillColor=none;spacingLeft=4;spacingRight=4;overflow=hidden;rotatable=0;points=[[0,0.5],[1,0.5]];portConstraint=eastwest;fontSize=12;" parent="YdMFW18HuKcV_9Qh_8Ng-113" vertex="1">
          <mxGeometry y="116" width="160" height="30" as="geometry" />
        </mxCell>
        <mxCell id="YdMFW18HuKcV_9Qh_8Ng-118" value="category_image" style="text;strokeColor=none;fillColor=none;spacingLeft=4;spacingRight=4;overflow=hidden;rotatable=0;points=[[0,0.5],[1,0.5]];portConstraint=eastwest;fontSize=12;" parent="YdMFW18HuKcV_9Qh_8Ng-113" vertex="1">
          <mxGeometry y="146" width="160" height="30" as="geometry" />
        </mxCell>
        <mxCell id="YdMFW18HuKcV_9Qh_8Ng-119" value="created" style="text;strokeColor=none;fillColor=none;spacingLeft=4;spacingRight=4;overflow=hidden;rotatable=0;points=[[0,0.5],[1,0.5]];portConstraint=eastwest;fontSize=12;" parent="YdMFW18HuKcV_9Qh_8Ng-113" vertex="1">
          <mxGeometry y="176" width="160" height="30" as="geometry" />
        </mxCell>
        <mxCell id="YdMFW18HuKcV_9Qh_8Ng-120" value="updated" style="text;strokeColor=none;fillColor=none;spacingLeft=4;spacingRight=4;overflow=hidden;rotatable=0;points=[[0,0.5],[1,0.5]];portConstraint=eastwest;fontSize=12;" parent="YdMFW18HuKcV_9Qh_8Ng-113" vertex="1">
          <mxGeometry y="206" width="160" height="30" as="geometry" />
        </mxCell>
        <mxCell id="YdMFW18HuKcV_9Qh_8Ng-167" value="CART" style="swimlane;fontStyle=0;childLayout=stackLayout;horizontal=1;startSize=26;horizontalStack=0;resizeParent=1;resizeParentMax=0;resizeLast=0;collapsible=1;marginBottom=0;align=center;fontSize=14;" parent="1" vertex="1">
          <mxGeometry x="1161" y="-281" width="160" height="176" as="geometry" />
        </mxCell>
        <mxCell id="YdMFW18HuKcV_9Qh_8Ng-168" value="cart id" style="text;strokeColor=none;fillColor=none;spacingLeft=4;spacingRight=4;overflow=hidden;rotatable=0;points=[[0,0.5],[1,0.5]];portConstraint=eastwest;fontSize=12;fontStyle=4" parent="YdMFW18HuKcV_9Qh_8Ng-167" vertex="1">
          <mxGeometry y="26" width="160" height="30" as="geometry" />
        </mxCell>
        <mxCell id="YdMFW18HuKcV_9Qh_8Ng-172" value="product_id" style="text;strokeColor=none;fillColor=none;spacingLeft=4;spacingRight=4;overflow=hidden;rotatable=0;points=[[0,0.5],[1,0.5]];portConstraint=eastwest;fontSize=12;fontStyle=0" parent="YdMFW18HuKcV_9Qh_8Ng-167" vertex="1">
          <mxGeometry y="56" width="160" height="30" as="geometry" />
        </mxCell>
        <mxCell id="YdMFW18HuKcV_9Qh_8Ng-173" value="customer_id" style="text;strokeColor=none;fillColor=none;spacingLeft=4;spacingRight=4;overflow=hidden;rotatable=0;points=[[0,0.5],[1,0.5]];portConstraint=eastwest;fontSize=12;fontStyle=0" parent="YdMFW18HuKcV_9Qh_8Ng-167" vertex="1">
          <mxGeometry y="86" width="160" height="30" as="geometry" />
        </mxCell>
        <mxCell id="YdMFW18HuKcV_9Qh_8Ng-169" value="created" style="text;strokeColor=none;fillColor=none;spacingLeft=4;spacingRight=4;overflow=hidden;rotatable=0;points=[[0,0.5],[1,0.5]];portConstraint=eastwest;fontSize=12;" parent="YdMFW18HuKcV_9Qh_8Ng-167" vertex="1">
          <mxGeometry y="116" width="160" height="30" as="geometry" />
        </mxCell>
        <mxCell id="YdMFW18HuKcV_9Qh_8Ng-170" value="updated" style="text;strokeColor=none;fillColor=none;spacingLeft=4;spacingRight=4;overflow=hidden;rotatable=0;points=[[0,0.5],[1,0.5]];portConstraint=eastwest;fontSize=12;" parent="YdMFW18HuKcV_9Qh_8Ng-167" vertex="1">
          <mxGeometry y="146" width="160" height="30" as="geometry" />
        </mxCell>
        <mxCell id="YdMFW18HuKcV_9Qh_8Ng-161" value="WISHLIST" style="swimlane;fontStyle=0;childLayout=stackLayout;horizontal=1;startSize=20;horizontalStack=0;resizeParent=1;resizeParentMax=0;resizeLast=0;collapsible=1;marginBottom=0;align=center;fontSize=14;" parent="1" vertex="1">
          <mxGeometry x="1400" y="-405" width="160" height="170" as="geometry" />
        </mxCell>
        <mxCell id="YdMFW18HuKcV_9Qh_8Ng-162" value="wishlist id" style="text;strokeColor=none;fillColor=none;spacingLeft=4;spacingRight=4;overflow=hidden;rotatable=0;points=[[0,0.5],[1,0.5]];portConstraint=eastwest;fontSize=12;fontStyle=4" parent="YdMFW18HuKcV_9Qh_8Ng-161" vertex="1">
          <mxGeometry y="20" width="160" height="30" as="geometry" />
        </mxCell>
        <mxCell id="YdMFW18HuKcV_9Qh_8Ng-165" value="product_id" style="text;strokeColor=none;fillColor=none;spacingLeft=4;spacingRight=4;overflow=hidden;rotatable=0;points=[[0,0.5],[1,0.5]];portConstraint=eastwest;fontSize=12;fontStyle=0" parent="YdMFW18HuKcV_9Qh_8Ng-161" vertex="1">
          <mxGeometry y="50" width="160" height="30" as="geometry" />
        </mxCell>
        <mxCell id="YdMFW18HuKcV_9Qh_8Ng-166" value="customer_id" style="text;strokeColor=none;fillColor=none;spacingLeft=4;spacingRight=4;overflow=hidden;rotatable=0;points=[[0,0.5],[1,0.5]];portConstraint=eastwest;fontSize=12;fontStyle=0" parent="YdMFW18HuKcV_9Qh_8Ng-161" vertex="1">
          <mxGeometry y="80" width="160" height="30" as="geometry" />
        </mxCell>
        <mxCell id="YdMFW18HuKcV_9Qh_8Ng-163" value="created" style="text;strokeColor=none;fillColor=none;spacingLeft=4;spacingRight=4;overflow=hidden;rotatable=0;points=[[0,0.5],[1,0.5]];portConstraint=eastwest;fontSize=12;" parent="YdMFW18HuKcV_9Qh_8Ng-161" vertex="1">
          <mxGeometry y="110" width="160" height="30" as="geometry" />
        </mxCell>
        <mxCell id="YdMFW18HuKcV_9Qh_8Ng-164" value="updated" style="text;strokeColor=none;fillColor=none;spacingLeft=4;spacingRight=4;overflow=hidden;rotatable=0;points=[[0,0.5],[1,0.5]];portConstraint=eastwest;fontSize=12;" parent="YdMFW18HuKcV_9Qh_8Ng-161" vertex="1">
          <mxGeometry y="140" width="160" height="30" as="geometry" />
        </mxCell>
        <mxCell id="YdMFW18HuKcV_9Qh_8Ng-171" value="" style="fontSize=12;html=1;endArrow=ERzeroToOne;endFill=1;strokeColor=#000000;strokeWidth=1;exitX=1.008;exitY=0.748;exitDx=0;exitDy=0;exitPerimeter=0;rounded=0;entryX=0.009;entryY=0.156;entryDx=0;entryDy=0;entryPerimeter=0;" parent="1" source="YdMFW18HuKcV_9Qh_8Ng-78" target="YdMFW18HuKcV_9Qh_8Ng-173" edge="1">
          <mxGeometry width="100" height="100" relative="1" as="geometry">
            <mxPoint x="980" y="-280" as="sourcePoint" />
            <mxPoint x="1080" y="-380" as="targetPoint" />
            <Array as="points">
              <mxPoint x="1080" y="-372" />
              <mxPoint x="1080" y="-189" />
            </Array>
          </mxGeometry>
        </mxCell>
        <mxCell id="YdMFW18HuKcV_9Qh_8Ng-174" value="" style="fontSize=12;html=1;endArrow=ERzeroToOne;endFill=1;strokeColor=#000000;strokeWidth=1;rounded=0;exitX=0.997;exitY=0.156;exitDx=0;exitDy=0;exitPerimeter=0;entryX=-0.01;entryY=0.874;entryDx=0;entryDy=0;entryPerimeter=0;" parent="1" source="YdMFW18HuKcV_9Qh_8Ng-78" target="YdMFW18HuKcV_9Qh_8Ng-159" edge="1">
          <mxGeometry width="100" height="100" relative="1" as="geometry">
            <mxPoint x="990" y="-390" as="sourcePoint" />
            <mxPoint x="1090" y="-490" as="targetPoint" />
            <Array as="points">
              <mxPoint x="820" y="-389" />
              <mxPoint x="820" y="-438" />
            </Array>
          </mxGeometry>
        </mxCell>
        <mxCell id="YdMFW18HuKcV_9Qh_8Ng-155" value="LIKE_PRODUCT" style="swimlane;fontStyle=0;childLayout=stackLayout;horizontal=1;startSize=26;horizontalStack=0;resizeParent=1;resizeParentMax=0;resizeLast=0;collapsible=1;marginBottom=0;align=center;fontSize=14;" parent="1" vertex="1">
          <mxGeometry x="1161" y="-550" width="160" height="176" as="geometry" />
        </mxCell>
        <mxCell id="YdMFW18HuKcV_9Qh_8Ng-156" value="likeproduct _id" style="text;strokeColor=none;fillColor=none;spacingLeft=4;spacingRight=4;overflow=hidden;rotatable=0;points=[[0,0.5],[1,0.5]];portConstraint=eastwest;fontSize=12;fontStyle=4" parent="YdMFW18HuKcV_9Qh_8Ng-155" vertex="1">
          <mxGeometry y="26" width="160" height="30" as="geometry" />
        </mxCell>
        <mxCell id="YdMFW18HuKcV_9Qh_8Ng-160" value="product_id" style="text;strokeColor=none;fillColor=none;spacingLeft=4;spacingRight=4;overflow=hidden;rotatable=0;points=[[0,0.5],[1,0.5]];portConstraint=eastwest;fontSize=12;fontStyle=0" parent="YdMFW18HuKcV_9Qh_8Ng-155" vertex="1">
          <mxGeometry y="56" width="160" height="30" as="geometry" />
        </mxCell>
        <mxCell id="YdMFW18HuKcV_9Qh_8Ng-159" value="customer_id" style="text;strokeColor=none;fillColor=none;spacingLeft=4;spacingRight=4;overflow=hidden;rotatable=0;points=[[0,0.5],[1,0.5]];portConstraint=eastwest;fontSize=12;fontStyle=0" parent="YdMFW18HuKcV_9Qh_8Ng-155" vertex="1">
          <mxGeometry y="86" width="160" height="30" as="geometry" />
        </mxCell>
        <mxCell id="YdMFW18HuKcV_9Qh_8Ng-157" value="updated" style="text;strokeColor=none;fillColor=none;spacingLeft=4;spacingRight=4;overflow=hidden;rotatable=0;points=[[0,0.5],[1,0.5]];portConstraint=eastwest;fontSize=12;" parent="YdMFW18HuKcV_9Qh_8Ng-155" vertex="1">
          <mxGeometry y="116" width="160" height="30" as="geometry" />
        </mxCell>
        <mxCell id="YdMFW18HuKcV_9Qh_8Ng-158" value="created" style="text;strokeColor=none;fillColor=none;spacingLeft=4;spacingRight=4;overflow=hidden;rotatable=0;points=[[0,0.5],[1,0.5]];portConstraint=eastwest;fontSize=12;" parent="YdMFW18HuKcV_9Qh_8Ng-155" vertex="1">
          <mxGeometry y="146" width="160" height="30" as="geometry" />
        </mxCell>
        <mxCell id="YdMFW18HuKcV_9Qh_8Ng-175" value="" style="fontSize=12;html=1;endArrow=ERzeroToOne;endFill=1;strokeColor=#000000;strokeWidth=1;entryX=-0.017;entryY=0.178;entryDx=0;entryDy=0;entryPerimeter=0;rounded=0;" parent="1" source="YdMFW18HuKcV_9Qh_8Ng-78" target="YdMFW18HuKcV_9Qh_8Ng-166" edge="1">
          <mxGeometry width="100" height="100" relative="1" as="geometry">
            <mxPoint x="1120" y="-250" as="sourcePoint" />
            <mxPoint x="1220" y="-350" as="targetPoint" />
            <Array as="points">
              <mxPoint x="1090" y="-379" />
              <mxPoint x="1090" y="-320" />
            </Array>
          </mxGeometry>
        </mxCell>
        <mxCell id="YdMFW18HuKcV_9Qh_8Ng-176" value="" style="fontSize=12;html=1;endArrow=ERzeroToMany;endFill=1;strokeColor=#000000;strokeWidth=1;rounded=0;exitX=-0.001;exitY=0.23;exitDx=0;exitDy=0;exitPerimeter=0;entryX=0.994;entryY=0;entryDx=0;entryDy=0;entryPerimeter=0;" parent="1" source="YdMFW18HuKcV_9Qh_8Ng-160" target="YdMFW18HuKcV_9Qh_8Ng-93" edge="1">
          <mxGeometry width="100" height="100" relative="1" as="geometry">
            <mxPoint x="1160" y="-610" as="sourcePoint" />
            <mxPoint x="1260" y="-710" as="targetPoint" />
            <Array as="points">
              <mxPoint x="1140" y="-487" />
              <mxPoint x="1140" y="-890" />
            </Array>
          </mxGeometry>
        </mxCell>
        <mxCell id="YdMFW18HuKcV_9Qh_8Ng-177" value="" style="fontSize=12;html=1;endArrow=ERzeroToMany;endFill=1;strokeColor=#000000;strokeWidth=1;rounded=0;entryX=0.994;entryY=1;entryDx=0;entryDy=0;entryPerimeter=0;exitX=-0.007;exitY=0.27;exitDx=0;exitDy=0;exitPerimeter=0;" parent="1" source="YdMFW18HuKcV_9Qh_8Ng-172" target="YdMFW18HuKcV_9Qh_8Ng-93" edge="1">
          <mxGeometry width="100" height="100" relative="1" as="geometry">
            <mxPoint x="1280" y="-590" as="sourcePoint" />
            <mxPoint x="1380" y="-690" as="targetPoint" />
            <Array as="points">
              <mxPoint x="1100" y="-217" />
              <mxPoint x="1100" y="-860" />
            </Array>
          </mxGeometry>
        </mxCell>
        <mxCell id="YdMFW18HuKcV_9Qh_8Ng-179" value="" style="fontSize=12;html=1;endArrow=ERzeroToMany;endFill=1;strokeWidth=1;rounded=0;exitX=0.999;exitY=0.778;exitDx=0;exitDy=0;exitPerimeter=0;entryX=0;entryY=0;entryDx=0;entryDy=0;entryPerimeter=0;" parent="1" source="YdMFW18HuKcV_9Qh_8Ng-93" target="YdMFW18HuKcV_9Qh_8Ng-165" edge="1">
          <mxGeometry width="100" height="100" relative="1" as="geometry">
            <mxPoint x="1270" y="-580" as="sourcePoint" />
            <mxPoint x="1370" y="-680" as="targetPoint" />
            <Array as="points">
              <mxPoint x="1340" y="-867" />
              <mxPoint x="1340" y="-355" />
            </Array>
          </mxGeometry>
        </mxCell>
        <mxCell id="YdMFW18HuKcV_9Qh_8Ng-180" value="PAYMENT" style="swimlane;fontStyle=0;childLayout=stackLayout;horizontal=1;startSize=26;horizontalStack=0;resizeParent=1;resizeParentMax=0;resizeLast=0;collapsible=1;marginBottom=0;align=center;fontSize=14;" parent="1" vertex="1">
          <mxGeometry x="620" y="140" width="160" height="146" as="geometry" />
        </mxCell>
        <mxCell id="YdMFW18HuKcV_9Qh_8Ng-181" value="payment id" style="text;strokeColor=none;fillColor=none;spacingLeft=4;spacingRight=4;overflow=hidden;rotatable=0;points=[[0,0.5],[1,0.5]];portConstraint=eastwest;fontSize=12;fontStyle=4" parent="YdMFW18HuKcV_9Qh_8Ng-180" vertex="1">
          <mxGeometry y="26" width="160" height="30" as="geometry" />
        </mxCell>
        <mxCell id="YdMFW18HuKcV_9Qh_8Ng-182" value="payment_mode" style="text;strokeColor=none;fillColor=none;spacingLeft=4;spacingRight=4;overflow=hidden;rotatable=0;points=[[0,0.5],[1,0.5]];portConstraint=eastwest;fontSize=12;" parent="YdMFW18HuKcV_9Qh_8Ng-180" vertex="1">
          <mxGeometry y="56" width="160" height="30" as="geometry" />
        </mxCell>
        <mxCell id="YdMFW18HuKcV_9Qh_8Ng-183" value="created" style="text;strokeColor=none;fillColor=none;spacingLeft=4;spacingRight=4;overflow=hidden;rotatable=0;points=[[0,0.5],[1,0.5]];portConstraint=eastwest;fontSize=12;" parent="YdMFW18HuKcV_9Qh_8Ng-180" vertex="1">
          <mxGeometry y="86" width="160" height="30" as="geometry" />
        </mxCell>
        <mxCell id="YdMFW18HuKcV_9Qh_8Ng-184" value="updated" style="text;strokeColor=none;fillColor=none;spacingLeft=4;spacingRight=4;overflow=hidden;rotatable=0;points=[[0,0.5],[1,0.5]];portConstraint=eastwest;fontSize=12;" parent="YdMFW18HuKcV_9Qh_8Ng-180" vertex="1">
          <mxGeometry y="116" width="160" height="30" as="geometry" />
        </mxCell>
        <mxCell id="YdMFW18HuKcV_9Qh_8Ng-185" value="" style="fontSize=12;html=1;endArrow=ERmandOne;strokeColor=#000000;strokeWidth=1;rounded=0;exitX=1.013;exitY=0.807;exitDx=0;exitDy=0;exitPerimeter=0;entryX=1.008;entryY=0.274;entryDx=0;entryDy=0;entryPerimeter=0;" parent="1" source="YdMFW18HuKcV_9Qh_8Ng-138" target="YdMFW18HuKcV_9Qh_8Ng-181" edge="1">
          <mxGeometry width="100" height="100" relative="1" as="geometry">
            <mxPoint x="920" y="240" as="sourcePoint" />
            <mxPoint x="1020" y="140" as="targetPoint" />
            <Array as="points">
              <mxPoint x="810" y="46" />
              <mxPoint x="810" y="174" />
            </Array>
          </mxGeometry>
        </mxCell>
        <mxCell id="YdMFW18HuKcV_9Qh_8Ng-190" value="SALE" style="swimlane;fontStyle=0;childLayout=stackLayout;horizontal=1;startSize=26;horizontalStack=0;resizeParent=1;resizeParentMax=0;resizeLast=0;collapsible=1;marginBottom=0;align=center;fontSize=14;" parent="1" vertex="1">
          <mxGeometry x="620" y="-873" width="160" height="206" as="geometry" />
        </mxCell>
        <mxCell id="YdMFW18HuKcV_9Qh_8Ng-191" value="sale_id" style="text;strokeColor=none;fillColor=none;spacingLeft=4;spacingRight=4;overflow=hidden;rotatable=0;points=[[0,0.5],[1,0.5]];portConstraint=eastwest;fontSize=12;fontStyle=4" parent="YdMFW18HuKcV_9Qh_8Ng-190" vertex="1">
          <mxGeometry y="26" width="160" height="30" as="geometry" />
        </mxCell>
        <mxCell id="YdMFW18HuKcV_9Qh_8Ng-193" value="discount" style="text;strokeColor=none;fillColor=none;spacingLeft=4;spacingRight=4;overflow=hidden;rotatable=0;points=[[0,0.5],[1,0.5]];portConstraint=eastwest;fontSize=12;" parent="YdMFW18HuKcV_9Qh_8Ng-190" vertex="1">
          <mxGeometry y="56" width="160" height="30" as="geometry" />
        </mxCell>
        <mxCell id="YdMFW18HuKcV_9Qh_8Ng-194" value="sale_start_date" style="text;strokeColor=none;fillColor=none;spacingLeft=4;spacingRight=4;overflow=hidden;rotatable=0;points=[[0,0.5],[1,0.5]];portConstraint=eastwest;fontSize=12;" parent="YdMFW18HuKcV_9Qh_8Ng-190" vertex="1">
          <mxGeometry y="86" width="160" height="30" as="geometry" />
        </mxCell>
        <mxCell id="YdMFW18HuKcV_9Qh_8Ng-195" value="sale_end_date" style="text;strokeColor=none;fillColor=none;spacingLeft=4;spacingRight=4;overflow=hidden;rotatable=0;points=[[0,0.5],[1,0.5]];portConstraint=eastwest;fontSize=12;" parent="YdMFW18HuKcV_9Qh_8Ng-190" vertex="1">
          <mxGeometry y="116" width="160" height="30" as="geometry" />
        </mxCell>
        <mxCell id="YdMFW18HuKcV_9Qh_8Ng-196" value="created" style="text;strokeColor=none;fillColor=none;spacingLeft=4;spacingRight=4;overflow=hidden;rotatable=0;points=[[0,0.5],[1,0.5]];portConstraint=eastwest;fontSize=12;" parent="YdMFW18HuKcV_9Qh_8Ng-190" vertex="1">
          <mxGeometry y="146" width="160" height="30" as="geometry" />
        </mxCell>
        <mxCell id="YdMFW18HuKcV_9Qh_8Ng-197" value="updated" style="text;strokeColor=none;fillColor=none;spacingLeft=4;spacingRight=4;overflow=hidden;rotatable=0;points=[[0,0.5],[1,0.5]];portConstraint=eastwest;fontSize=12;" parent="YdMFW18HuKcV_9Qh_8Ng-190" vertex="1">
          <mxGeometry y="176" width="160" height="30" as="geometry" />
        </mxCell>
        <mxCell id="YdMFW18HuKcV_9Qh_8Ng-198" value="" style="fontSize=12;html=1;endArrow=ERzeroToOne;endFill=1;strokeColor=#000000;strokeWidth=1;rounded=0;entryX=1.008;entryY=0.915;entryDx=0;entryDy=0;entryPerimeter=0;exitX=-0.018;exitY=0.17;exitDx=0;exitDy=0;exitPerimeter=0;" parent="1" source="YdMFW18HuKcV_9Qh_8Ng-100" target="YdMFW18HuKcV_9Qh_8Ng-191" edge="1">
          <mxGeometry width="100" height="100" relative="1" as="geometry">
            <mxPoint x="740" y="-910" as="sourcePoint" />
            <mxPoint x="840" y="-1010" as="targetPoint" />
            <Array as="points">
              <mxPoint x="880" y="-735" />
              <mxPoint x="880" y="-820" />
            </Array>
          </mxGeometry>
        </mxCell>
        <mxCell id="YdMFW18HuKcV_9Qh_8Ng-199" value="REVIEW" style="swimlane;fontStyle=0;childLayout=stackLayout;horizontal=1;startSize=26;horizontalStack=0;resizeParent=1;resizeParentMax=0;resizeLast=0;collapsible=1;marginBottom=0;align=center;fontSize=14;" parent="1" vertex="1">
          <mxGeometry x="921" y="-1160" width="160" height="236" as="geometry" />
        </mxCell>
        <mxCell id="YdMFW18HuKcV_9Qh_8Ng-200" value="review_id" style="text;strokeColor=none;fillColor=none;spacingLeft=4;spacingRight=4;overflow=hidden;rotatable=0;points=[[0,0.5],[1,0.5]];portConstraint=eastwest;fontSize=12;fontStyle=4" parent="YdMFW18HuKcV_9Qh_8Ng-199" vertex="1">
          <mxGeometry y="26" width="160" height="30" as="geometry" />
        </mxCell>
        <mxCell id="YdMFW18HuKcV_9Qh_8Ng-201" value="rating" style="text;strokeColor=none;fillColor=none;spacingLeft=4;spacingRight=4;overflow=hidden;rotatable=0;points=[[0,0.5],[1,0.5]];portConstraint=eastwest;fontSize=12;" parent="YdMFW18HuKcV_9Qh_8Ng-199" vertex="1">
          <mxGeometry y="56" width="160" height="30" as="geometry" />
        </mxCell>
        <mxCell id="YdMFW18HuKcV_9Qh_8Ng-202" value="description" style="text;strokeColor=none;fillColor=none;spacingLeft=4;spacingRight=4;overflow=hidden;rotatable=0;points=[[0,0.5],[1,0.5]];portConstraint=eastwest;fontSize=12;" parent="YdMFW18HuKcV_9Qh_8Ng-199" vertex="1">
          <mxGeometry y="86" width="160" height="30" as="geometry" />
        </mxCell>
        <mxCell id="YdMFW18HuKcV_9Qh_8Ng-203" value="product_id" style="text;strokeColor=none;fillColor=none;spacingLeft=4;spacingRight=4;overflow=hidden;rotatable=0;points=[[0,0.5],[1,0.5]];portConstraint=eastwest;fontSize=12;" parent="YdMFW18HuKcV_9Qh_8Ng-199" vertex="1">
          <mxGeometry y="116" width="160" height="30" as="geometry" />
        </mxCell>
        <mxCell id="YdMFW18HuKcV_9Qh_8Ng-204" value="customer_id" style="text;strokeColor=none;fillColor=none;spacingLeft=4;spacingRight=4;overflow=hidden;rotatable=0;points=[[0,0.5],[1,0.5]];portConstraint=eastwest;fontSize=12;" parent="YdMFW18HuKcV_9Qh_8Ng-199" vertex="1">
          <mxGeometry y="146" width="160" height="30" as="geometry" />
        </mxCell>
        <mxCell id="YdMFW18HuKcV_9Qh_8Ng-205" value="updated" style="text;strokeColor=none;fillColor=none;spacingLeft=4;spacingRight=4;overflow=hidden;rotatable=0;points=[[0,0.5],[1,0.5]];portConstraint=eastwest;fontSize=12;" parent="YdMFW18HuKcV_9Qh_8Ng-199" vertex="1">
          <mxGeometry y="176" width="160" height="30" as="geometry" />
        </mxCell>
        <mxCell id="DZHXxEHf12C7qCPbh6NI-1" value="created" style="text;strokeColor=none;fillColor=none;spacingLeft=4;spacingRight=4;overflow=hidden;rotatable=0;points=[[0,0.5],[1,0.5]];portConstraint=eastwest;fontSize=12;" vertex="1" parent="YdMFW18HuKcV_9Qh_8Ng-199">
          <mxGeometry y="206" width="160" height="30" as="geometry" />
        </mxCell>
        <mxCell id="YdMFW18HuKcV_9Qh_8Ng-206" value="" style="fontSize=12;html=1;endArrow=ERzeroToMany;endFill=1;strokeColor=#000000;strokeWidth=1;entryX=-0.012;entryY=0.933;entryDx=0;entryDy=0;entryPerimeter=0;exitX=0.01;exitY=0.807;exitDx=0;exitDy=0;exitPerimeter=0;rounded=0;" parent="1" source="YdMFW18HuKcV_9Qh_8Ng-93" target="YdMFW18HuKcV_9Qh_8Ng-203" edge="1">
          <mxGeometry width="100" height="100" relative="1" as="geometry">
            <mxPoint x="650" y="-970" as="sourcePoint" />
            <mxPoint x="750" y="-1070" as="targetPoint" />
            <Array as="points">
              <mxPoint x="870" y="-866" />
              <mxPoint x="870" y="-1016" />
            </Array>
          </mxGeometry>
        </mxCell>
        <mxCell id="DZHXxEHf12C7qCPbh6NI-2" value="" style="fontSize=12;html=1;endArrow=ERoneToMany;exitX=0.998;exitY=0.2;exitDx=0;exitDy=0;exitPerimeter=0;entryX=-0.012;entryY=0.844;entryDx=0;entryDy=0;entryPerimeter=0;rounded=0;" edge="1" parent="1" source="YdMFW18HuKcV_9Qh_8Ng-78" target="YdMFW18HuKcV_9Qh_8Ng-204">
          <mxGeometry width="100" height="100" relative="1" as="geometry">
            <mxPoint x="840" y="-370" as="sourcePoint" />
            <mxPoint x="940" y="-470" as="targetPoint" />
            <Array as="points">
              <mxPoint x="790" y="-390" />
              <mxPoint x="790" y="-989" />
            </Array>
          </mxGeometry>
        </mxCell>
        <mxCell id="DZHXxEHf12C7qCPbh6NI-7" value="TAG" style="swimlane;fontStyle=0;childLayout=stackLayout;horizontal=1;startSize=26;horizontalStack=0;resizeParent=1;resizeParentMax=0;resizeLast=0;collapsible=1;marginBottom=0;align=center;fontSize=14;" vertex="1" parent="1">
          <mxGeometry x="1360" y="-1180" width="160" height="206" as="geometry" />
        </mxCell>
        <mxCell id="DZHXxEHf12C7qCPbh6NI-8" value="tag_id&#xa;" style="text;strokeColor=none;fillColor=none;spacingLeft=4;spacingRight=4;overflow=hidden;rotatable=0;points=[[0,0.5],[1,0.5]];portConstraint=eastwest;fontSize=12;fontStyle=4" vertex="1" parent="DZHXxEHf12C7qCPbh6NI-7">
          <mxGeometry y="26" width="160" height="30" as="geometry" />
        </mxCell>
        <mxCell id="DZHXxEHf12C7qCPbh6NI-9" value="name&#xa;" style="text;strokeColor=none;fillColor=none;spacingLeft=4;spacingRight=4;overflow=hidden;rotatable=0;points=[[0,0.5],[1,0.5]];portConstraint=eastwest;fontSize=12;" vertex="1" parent="DZHXxEHf12C7qCPbh6NI-7">
          <mxGeometry y="56" width="160" height="30" as="geometry" />
        </mxCell>
        <mxCell id="DZHXxEHf12C7qCPbh6NI-10" value="slug" style="text;strokeColor=none;fillColor=none;spacingLeft=4;spacingRight=4;overflow=hidden;rotatable=0;points=[[0,0.5],[1,0.5]];portConstraint=eastwest;fontSize=12;" vertex="1" parent="DZHXxEHf12C7qCPbh6NI-7">
          <mxGeometry y="86" width="160" height="30" as="geometry" />
        </mxCell>
        <mxCell id="DZHXxEHf12C7qCPbh6NI-11" value="description" style="text;strokeColor=none;fillColor=none;spacingLeft=4;spacingRight=4;overflow=hidden;rotatable=0;points=[[0,0.5],[1,0.5]];portConstraint=eastwest;fontSize=12;" vertex="1" parent="DZHXxEHf12C7qCPbh6NI-7">
          <mxGeometry y="116" width="160" height="30" as="geometry" />
        </mxCell>
        <mxCell id="DZHXxEHf12C7qCPbh6NI-12" value="created" style="text;strokeColor=none;fillColor=none;spacingLeft=4;spacingRight=4;overflow=hidden;rotatable=0;points=[[0,0.5],[1,0.5]];portConstraint=eastwest;fontSize=12;" vertex="1" parent="DZHXxEHf12C7qCPbh6NI-7">
          <mxGeometry y="146" width="160" height="30" as="geometry" />
        </mxCell>
        <mxCell id="DZHXxEHf12C7qCPbh6NI-13" value="updated" style="text;strokeColor=none;fillColor=none;spacingLeft=4;spacingRight=4;overflow=hidden;rotatable=0;points=[[0,0.5],[1,0.5]];portConstraint=eastwest;fontSize=12;" vertex="1" parent="DZHXxEHf12C7qCPbh6NI-7">
          <mxGeometry y="176" width="160" height="30" as="geometry" />
        </mxCell>
        <mxCell id="DZHXxEHf12C7qCPbh6NI-18" value="" style="fontSize=12;html=1;endArrow=ERoneToMany;entryX=0.015;entryY=0.067;entryDx=0;entryDy=0;entryPerimeter=0;exitX=1.01;exitY=0.133;exitDx=0;exitDy=0;exitPerimeter=0;rounded=0;" edge="1" parent="1" source="DZHXxEHf12C7qCPbh6NI-16" target="DZHXxEHf12C7qCPbh6NI-8">
          <mxGeometry width="100" height="100" relative="1" as="geometry">
            <mxPoint x="1190" y="-890" as="sourcePoint" />
            <mxPoint x="1290" y="-980" as="targetPoint" />
            <Array as="points">
              <mxPoint x="1330" y="-1075" />
              <mxPoint x="1330" y="-1152" />
            </Array>
          </mxGeometry>
        </mxCell>
        <mxCell id="DZHXxEHf12C7qCPbh6NI-14" value="PRODUCT_TAG" style="swimlane;fontStyle=0;childLayout=stackLayout;horizontal=1;startSize=26;horizontalStack=0;resizeParent=1;resizeParentMax=0;resizeLast=0;collapsible=1;marginBottom=0;align=center;fontSize=14;" vertex="1" parent="1">
          <mxGeometry x="1150" y="-1135" width="160" height="116" as="geometry" />
        </mxCell>
        <mxCell id="DZHXxEHf12C7qCPbh6NI-15" value="product_tag_id" style="text;strokeColor=none;fillColor=none;spacingLeft=4;spacingRight=4;overflow=hidden;rotatable=0;points=[[0,0.5],[1,0.5]];portConstraint=eastwest;fontSize=12;fontStyle=4" vertex="1" parent="DZHXxEHf12C7qCPbh6NI-14">
          <mxGeometry y="26" width="160" height="30" as="geometry" />
        </mxCell>
        <mxCell id="DZHXxEHf12C7qCPbh6NI-16" value="tag_id" style="text;strokeColor=none;fillColor=none;spacingLeft=4;spacingRight=4;overflow=hidden;rotatable=0;points=[[0,0.5],[1,0.5]];portConstraint=eastwest;fontSize=12;" vertex="1" parent="DZHXxEHf12C7qCPbh6NI-14">
          <mxGeometry y="56" width="160" height="30" as="geometry" />
        </mxCell>
        <mxCell id="DZHXxEHf12C7qCPbh6NI-17" value="product_id" style="text;strokeColor=none;fillColor=none;spacingLeft=4;spacingRight=4;overflow=hidden;rotatable=0;points=[[0,0.5],[1,0.5]];portConstraint=eastwest;fontSize=12;" vertex="1" parent="DZHXxEHf12C7qCPbh6NI-14">
          <mxGeometry y="86" width="160" height="30" as="geometry" />
        </mxCell>
        <mxCell id="DZHXxEHf12C7qCPbh6NI-20" value="" style="fontSize=12;html=1;endArrow=ERoneToMany;exitX=1.021;exitY=0.289;exitDx=0;exitDy=0;exitPerimeter=0;entryX=0;entryY=0.5;entryDx=0;entryDy=0;rounded=0;" edge="1" parent="1" source="YdMFW18HuKcV_9Qh_8Ng-93" target="DZHXxEHf12C7qCPbh6NI-17">
          <mxGeometry width="100" height="100" relative="1" as="geometry">
            <mxPoint x="1081" y="-875" as="sourcePoint" />
            <mxPoint x="1260" y="-990" as="targetPoint" />
            <Array as="points">
              <mxPoint x="1110" y="-881" />
              <mxPoint x="1110" y="-1034" />
            </Array>
          </mxGeometry>
        </mxCell>
      </root>
    </mxGraphModel>
  </diagram>
</mxfile>
